<svg xmlns="http://www.w3.org/2000/svg" version="1.1" xmlns:xlink="http://www.w3.org/1999/xlink" xmlns:svgjs="http://svgjs.dev/svgjs" width="1000" height="252" viewBox="0 0 1000 252"><g transform="matrix(1,0,0,1,-0.6060541058450326,-0.3836467363098848)"><svg viewBox="0 0 396 100" data-background-color="#35185a" preserveAspectRatio="xMidYMid meet" height="252" width="1000" xmlns="http://www.w3.org/2000/svg" xmlns:xlink="http://www.w3.org/1999/xlink"><g id="tight-bounds" transform="matrix(1,0,0,1,0.23999742591462336,0.17449499654449596)"><svg viewBox="0 0 395.52 99.651010006911" height="99.651010006911" width="395.52"><g><svg viewBox="0 0 487.9407106945535 122.93634871612615" height="99.651010006911" width="395.52"><g transform="matrix(1,0,0,1,92.42071069455352,14.510057965348729)"><svg viewBox="0 0 395.52 93.91623278542869" height="93.91623278542869" width="395.52"><g><svg viewBox="0 0 395.52 93.91623278542869" height="93.91623278542869" width="395.52"><g><svg viewBox="0 0 395.52 93.91623278542869" height="93.91623278542869" width="395.52"><g transform="matrix(1,0,0,1,0,0)"><svg width="395.52" viewBox="2.700000047683716 -40.25 225.08999633789062 53.45000076293945" height="93.91623278542869" data-palette-color="#b10dc9"><path d="M41.25-38L36.5-34.35 36.5 0 34.1 0 10.25-30.7 10.25-4.4 15.15-1.75 14.25 0 3.15 0 3.15-1.3 7.85-4.95 7.85-34.8 2.7-37.55 3.55-39.3 10.85-39.3 34.1-9.35 34.1-34.9 29.25-37.55 30.15-39.3 41.25-39.3 41.25-38ZM86.45-1.75L85.55 0 71.05 0 71.05-1.3 75.55-5 71.55-14.65 54.55-14.65 50.15-4.6 59.15-1.75 58.3 0 43.3 0 43.3-1.3 47.85-4.9 62.25-37.7 66.75-40.25 81.45-4.9 86.45-1.75ZM70.75-16.6L63.3-34.6 55.4-16.6 70.75-16.6ZM100.15-34.3L100.15-4.95Q100.15-2.95 100.27-1.28 100.4 0.4 100.59 1L100.59 1 91.34 13.2 89.7 11.9Q92.5 8.3 93.47 5.8 94.45 3.3 94.45-0.35L94.45-0.35 94.45-35.55 88.3-37.55 89.2-39.3 104.9-39.3 104.9-38 100.15-34.3ZM147.54-1.6L146.69 0.15 137.69 0.15 126.39-17.7 124.04-19.45 124.69-20.75 127.59-20.75Q131.14-20.75 133.19-22.48 135.24-24.2 135.24-27.25L135.24-27.25Q135.24-31.3 132.99-34 130.74-36.7 126.39-36.7L126.39-36.7Q123.49-36.7 121.09-35L121.09-35 121.09-3.5 126.29-1.65 125.44 0.1 110.74 0.1 110.74-1.2 115.44-4.85 115.44-35.7 110.29-37.5 111.14-39.25 116.44-39.25Q120.99-39.25 125.49-39.55L125.49-39.55Q128.69-39.75 130.29-39.75L130.29-39.75Q133.54-39.75 136.09-38.4 138.64-37.05 140.04-34.77 141.44-32.5 141.44-29.75L141.44-29.75Q141.44-27.25 139.84-24.95 138.24-22.65 135.72-20.98 133.19-19.3 130.39-18.45L130.39-18.45 133.54-17.35 141.54-4.7 147.54-1.6ZM190.94-38L186.19-34.3 186.19-15.5Q186.19-10.25 183.69-6.5 181.19-2.75 177.49-0.88 173.79 1 170.29 1L170.29 1Q165.89 1 162.44-0.98 158.99-2.95 157.04-6.43 155.09-9.9 155.09-14.25L155.09-14.25 155.09-35.7 149.94-37.55 150.84-39.3 165.54-39.3 165.54-38 160.79-34.3 160.79-16.8Q160.79-10.2 163.99-6.55 167.19-2.9 173.69-2.9L173.69-2.9Q176.09-2.9 178.42-4.48 180.74-6.05 182.24-9.1 183.74-12.15 183.74-16.3L183.74-16.3 183.74-34.85 178.64-37.55 179.54-39.3 190.94-39.3 190.94-38ZM227.79 0.9L225.29 0 195.69 0 195.69-1.3 200.39-5 200.39-35.7 195.24-37.55 196.09-39.3 210.79-39.3 210.79-38 206.04-34.3 206.04-1.95 219.29-1.95 226.54-12.75 227.79-12.35 227.79 0.9Z" opacity="1" transform="matrix(1,0,0,1,0,0)" fill="#b10dc9" class="undefined-text-0" data-fill-palette-color="primary" id="text-0"></path></svg></g></svg></g></svg></g></svg></g><g><svg viewBox="0 0 70.24934212350065 122.93634871612615" height="122.93634871612615" width="70.24934212350065"><g><svg xmlns="http://www.w3.org/2000/svg" xmlns:xlink="http://www.w3.org/1999/xlink" version="1.1" x="0" y="0" viewBox="30 15 40 70" enable-background="new 0 0 100 100" xml:space="preserve" height="122.93634871612615" width="70.24934212350065" class="icon-icon-0" data-fill-palette-color="accent" id="icon-0"><circle fill="#b19dd0" cx="37.5" cy="22.5" r="7.5" data-fill-palette-color="accent"></circle><circle fill="#b19dd0" cx="37.5" cy="77.5" r="7.5" data-fill-palette-color="accent"></circle><circle fill="#b19dd0" cx="62.5" cy="22.5" r="7.5" data-fill-palette-color="accent"></circle><circle fill="#b19dd0" cx="62.5" cy="50" r="7.5" data-fill-palette-color="accent"></circle><circle cx="37.5" cy="50" r="2.5" fill="#b19dd0" data-fill-palette-color="accent"></circle><circle fill="#b19dd0" cx="62.5" cy="77.5" r="2.5" data-fill-palette-color="accent"></circle></svg></g></svg></g></svg></g><defs></defs></svg><rect width="395.52" height="99.651010006911" fill="none" stroke="none" visibility="hidden"></rect></g></svg></g></svg>